<svg width="30" height="31" viewBox="0 0 30 31" fill="none" xmlns="http://www.w3.org/2000/svg">
<rect x="3.75" y="5.5" width="22.5" height="5" rx="2" stroke="#EA5455" stroke-width="1.5" stroke-linecap="round" stroke-linejoin="round"/>
<rect x="3.75" y="5.5" width="22.5" height="5" rx="2" stroke="white" stroke-opacity="0.2" stroke-width="1.5" stroke-linecap="round" stroke-linejoin="round"/>
<path fill-rule="evenodd" clip-rule="evenodd" d="M6.25 10.5V23C6.25 24.3807 7.36929 25.5 8.75 25.5H21.25C22.6307 25.5 23.75 24.3807 23.75 23V10.5" fill="white"/>
<path d="M6.25 10.5V23C6.25 24.3807 7.36929 25.5 8.75 25.5H21.25C22.6307 25.5 23.75 24.3807 23.75 23V10.5" stroke="#EA5455" stroke-width="1.5" stroke-linecap="round" stroke-linejoin="round"/>
<path d="M6.25 10.5V23C6.25 24.3807 7.36929 25.5 8.75 25.5H21.25C22.6307 25.5 23.75 24.3807 23.75 23V10.5" stroke="white" stroke-opacity="0.2" stroke-width="1.5" stroke-linecap="round" stroke-linejoin="round"/>
<path d="M12.5 15.5H17.5" stroke="#EA5455" stroke-width="1.5" stroke-linecap="round" stroke-linejoin="round"/>
<path d="M12.5 15.5H17.5" stroke="white" stroke-opacity="0.2" stroke-width="1.5" stroke-linecap="round" stroke-linejoin="round"/>
</svg>
