<svg width="127" height="48" viewBox="0 0 127 48" fill="none" xmlns="http://www.w3.org/2000/svg">
<path d="M1.05566 46.4708L24.5259 27.2973L48.6422 41.3315L71.8972 18.007L95.7981 32.0413L119.268 4.76343" stroke="#00CFE8" stroke-width="2"/>
<ellipse cx="3.23867" cy="45.5065" rx="3.23867" ry="2.23656" fill="#00CFE8"/>
<ellipse cx="25.1625" cy="27.5434" rx="3.23867" ry="2.23656" fill="#00CFE8"/>
<ellipse cx="48.1332" cy="40.551" rx="3.23867" ry="2.23656" fill="#00CFE8"/>
<ellipse cx="71.8139" cy="18.7284" rx="3.23867" ry="2.23656" fill="#00CFE8"/>
<ellipse cx="96.2143" cy="31.5016" rx="3.23867" ry="2.23656" fill="#00CFE8"/>
<path d="M125.057 4.4759C125.057 5.08559 124.704 5.79311 123.819 6.41053C122.939 7.02438 121.642 7.4518 120.139 7.4518C118.636 7.4518 117.34 7.02438 116.459 6.41053C115.574 5.79311 115.222 5.08559 115.222 4.4759C115.222 3.86621 115.574 3.15869 116.459 2.54128C117.34 1.92742 118.636 1.5 120.139 1.5C121.642 1.5 122.939 1.92742 123.819 2.54128C124.704 3.15869 125.057 3.86621 125.057 4.4759Z" fill="white" stroke="#00CFE8" stroke-width="3"/>
</svg>
