<svg width="22" height="22" viewBox="0 0 22 22" fill="none" xmlns="http://www.w3.org/2000/svg">
<circle cx="11" cy="10.9998" r="1.83333" stroke="#4B465C" stroke-width="1.5" stroke-linecap="round" stroke-linejoin="round"/>
<circle cx="11" cy="10.9998" r="1.83333" stroke="white" stroke-opacity="0.2" stroke-width="1.5" stroke-linecap="round" stroke-linejoin="round"/>
<path d="M20.1667 11.0002C17.722 15.2782 14.6667 17.4168 11 17.4168C7.33337 17.4168 4.27812 15.2782 1.83337 11.0002C4.27812 6.72208 7.33337 4.5835 11 4.5835C14.6667 4.5835 17.722 6.72208 20.1667 11.0002" stroke="#4B465C" stroke-width="1.5" stroke-linecap="round" stroke-linejoin="round"/>
<path d="M20.1667 11.0002C17.722 15.2782 14.6667 17.4168 11 17.4168C7.33337 17.4168 4.27812 15.2782 1.83337 11.0002C4.27812 6.72208 7.33337 4.5835 11 4.5835C14.6667 4.5835 17.722 6.72208 20.1667 11.0002" stroke="white" stroke-opacity="0.2" stroke-width="1.5" stroke-linecap="round" stroke-linejoin="round"/>
</svg>
