<svg width="23" height="22" viewBox="0 0 23 22" fill="none" xmlns="http://www.w3.org/2000/svg">
<circle cx="11.2501" cy="11" r="1.83333" stroke="#4B465C" stroke-width="1.5" stroke-linecap="round" stroke-linejoin="round"/>
<circle cx="11.2501" cy="11" r="1.83333" stroke="white" stroke-opacity="0.2" stroke-width="1.5" stroke-linecap="round" stroke-linejoin="round"/>
<path d="M20.4166 11C17.9718 15.2781 14.9166 17.4167 11.2499 17.4167C7.58325 17.4167 4.528 15.2781 2.08325 11C4.528 6.72196 7.58325 4.58337 11.2499 4.58337C14.9166 4.58337 17.9718 6.72196 20.4166 11" stroke="#4B465C" stroke-width="1.5" stroke-linecap="round" stroke-linejoin="round"/>
<path d="M20.4166 11C17.9718 15.2781 14.9166 17.4167 11.2499 17.4167C7.58325 17.4167 4.528 15.2781 2.08325 11C4.528 6.72196 7.58325 4.58337 11.2499 4.58337C14.9166 4.58337 17.9718 6.72196 20.4166 11" stroke="white" stroke-opacity="0.2" stroke-width="1.5" stroke-linecap="round" stroke-linejoin="round"/>
</svg>
