<svg width="22" height="22" viewBox="0 0 22 22" fill="none" xmlns="http://www.w3.org/2000/svg">
<path fill-rule="evenodd" clip-rule="evenodd" d="M16.5 2.75C14.9812 2.75 13.75 3.98122 13.75 5.5V16.5C13.75 18.0188 14.9812 19.25 16.5 19.25C18.0188 19.25 19.25 18.0188 19.25 16.5C19.25 14.9812 18.0188 13.75 16.5 13.75H5.5C3.98122 13.75 2.75 14.9812 2.75 16.5C2.75 18.0188 3.98122 19.25 5.5 19.25C7.01878 19.25 8.25 18.0188 8.25 16.5V5.5C8.25 3.98122 7.01878 2.75 5.5 2.75C3.98122 2.75 2.75 3.98122 2.75 5.5C2.75 7.01878 3.98122 8.25 5.5 8.25H16.5C18.0188 8.25 19.25 7.01878 19.25 5.5C19.25 3.98122 18.0188 2.75 16.5 2.75Z" stroke="#242745" stroke-width="2" stroke-linecap="round" stroke-linejoin="round"/>
</svg>
