<svg width="24" height="23" viewBox="0 0 24 23" fill="none" xmlns="http://www.w3.org/2000/svg">
<path fill-rule="evenodd" clip-rule="evenodd" d="M12 14.25C13.5188 14.25 14.75 13.0188 14.75 11.5C14.75 9.98122 13.5188 8.75 12 8.75C10.4812 8.75 9.25 9.98122 9.25 11.5C9.25 13.0188 10.4812 14.25 12 14.25Z" stroke="black" stroke-width="2" stroke-linecap="round" stroke-linejoin="round"/>
<path fill-rule="evenodd" clip-rule="evenodd" d="M18.7834 14.2501C18.5337 14.8157 18.6535 15.4764 19.0859 15.9184L19.1409 15.9734C19.4851 16.3173 19.6785 16.7839 19.6785 17.2705C19.6785 17.7571 19.4851 18.2237 19.1409 18.5676C18.797 18.9118 18.3304 19.1053 17.8438 19.1053C17.3572 19.1053 16.8906 18.9118 16.5467 18.5676L16.4917 18.5126C16.0497 18.0802 15.389 17.9604 14.8234 18.2101C14.2693 18.4476 13.9091 18.9914 13.9067 19.5942V19.7501C13.9067 20.7626 13.0859 21.5834 12.0734 21.5834C11.0608 21.5834 10.24 20.7626 10.24 19.7501V19.6676C10.2255 19.0467 9.8329 18.4978 9.25002 18.2834C8.68436 18.0338 8.02369 18.1536 7.58169 18.5859L7.52669 18.6409C7.18281 18.9852 6.71619 19.1786 6.2296 19.1786C5.74302 19.1786 5.2764 18.9852 4.93252 18.6409C4.58826 18.297 4.39483 17.8304 4.39483 17.3438C4.39483 16.8572 4.58826 16.3906 4.93252 16.0467L4.98752 15.9917C5.41988 15.5497 5.53967 14.8891 5.29002 14.3234C5.05254 13.7693 4.50869 13.4092 3.90585 13.4067H3.75002C2.7375 13.4067 1.91669 12.5859 1.91669 11.5734C1.91669 10.5609 2.7375 9.74008 3.75002 9.74008H3.83252C4.45341 9.72556 5.00231 9.33296 5.21669 8.75008C5.46634 8.18442 5.34655 7.52375 4.91419 7.08175L4.85919 7.02675C4.51493 6.68287 4.3215 6.21625 4.3215 5.72967C4.3215 5.24308 4.51493 4.77646 4.85919 4.43258C5.20306 4.08832 5.66969 3.89489 6.15627 3.89489C6.64285 3.89489 7.10948 4.08832 7.45335 4.43258L7.50835 4.48758C7.95036 4.91994 8.61102 5.03973 9.17669 4.79008H9.25002C9.80412 4.5526 10.1643 4.00875 10.1667 3.40591V3.25008C10.1667 2.23756 10.9875 1.41675 12 1.41675C13.0125 1.41675 13.8334 2.23756 13.8334 3.25008V3.33258C13.8358 3.93542 14.1959 4.47927 14.75 4.71675C15.3157 4.9664 15.9764 4.84661 16.4184 4.41425L16.4734 4.35925C16.8172 4.01499 17.2839 3.82156 17.7704 3.82156C18.257 3.82156 18.7236 4.01499 19.0675 4.35925C19.4118 4.70312 19.6052 5.16975 19.6052 5.65633C19.6052 6.14292 19.4118 6.60954 19.0675 6.95342L19.0125 7.00842C18.5802 7.45042 18.4604 8.11108 18.71 8.67675V8.75008C18.9475 9.30418 19.4913 9.66434 20.0942 9.66675H20.25C21.2625 9.66675 22.0834 10.4876 22.0834 11.5001C22.0834 12.5126 21.2625 13.3334 20.25 13.3334H20.1675C19.5647 13.3358 19.0208 13.696 18.7834 14.2501Z" stroke="black" stroke-width="2" stroke-linecap="round" stroke-linejoin="round"/>
</svg>
