<svg width="30" height="31" viewBox="0 0 30 31" fill="none" xmlns="http://www.w3.org/2000/svg">
<path d="M18.75 4.25V9.25C18.75 9.94036 19.3096 10.5 20 10.5H25" stroke="#EA5455" stroke-width="1.5" stroke-linecap="round" stroke-linejoin="round"/>
<path fill-rule="evenodd" clip-rule="evenodd" d="M22.5 21.75H13.75C12.3693 21.75 11.25 20.6307 11.25 19.25V6.75C11.25 5.36929 12.3693 4.25 13.75 4.25H18.75L25 10.5V19.25C25 20.6307 23.8807 21.75 22.5 21.75Z" stroke="#EA5455" stroke-width="1.5" stroke-linecap="round" stroke-linejoin="round"/>
<path d="M20 21.75V24.25C20 25.6307 18.8807 26.75 17.5 26.75H8.75C7.36929 26.75 6.25 25.6307 6.25 24.25V11.75C6.25 10.3693 7.36929 9.25 8.75 9.25H11.25" stroke="#EA5455" stroke-width="1.5" stroke-linecap="round" stroke-linejoin="round"/>
</svg>
