<svg width="38" height="39" viewBox="0 0 38 39" fill="none" xmlns="http://www.w3.org/2000/svg">
<path d="M7.91667 6.8335H14.25L19 11.5835H30.0833C31.8322 11.5835 33.25 13.0013 33.25 14.7502V27.4168C33.25 29.1657 31.8322 30.5835 30.0833 30.5835H7.91667C6.16776 30.5835 4.75 29.1657 4.75 27.4168V10.0002C4.75 8.25126 6.16776 6.8335 7.91667 6.8335" stroke="#4B465C" stroke-width="1.5" stroke-linecap="round" stroke-linejoin="round"/>
<path d="M7.91667 6.8335H14.25L19 11.5835H30.0833C31.8322 11.5835 33.25 13.0013 33.25 14.7502V27.4168C33.25 29.1657 31.8322 30.5835 30.0833 30.5835H7.91667C6.16776 30.5835 4.75 29.1657 4.75 27.4168V10.0002C4.75 8.25126 6.16776 6.8335 7.91667 6.8335" stroke="white" stroke-opacity="0.2" stroke-width="1.5" stroke-linecap="round" stroke-linejoin="round"/>
</svg>
