<svg width="22" height="22" viewBox="0 0 22 22" fill="none" xmlns="http://www.w3.org/2000/svg">
<path d="M11 15.5834C12.0084 15.5834 12.8334 14.7584 12.8334 13.7501C12.8334 12.7417 12.0084 11.9167 11 11.9167C9.99169 11.9167 9.16669 12.7417 9.16669 13.7501C9.16669 14.7584 9.99169 15.5834 11 15.5834ZM16.5 7.33342H15.5834V5.50008C15.5834 2.97008 13.53 0.916748 11 0.916748C8.47002 0.916748 6.41669 2.97008 6.41669 5.50008V7.33342H5.50002C4.49169 7.33342 3.66669 8.15841 3.66669 9.16675V18.3334C3.66669 19.3417 4.49169 20.1667 5.50002 20.1667H16.5C17.5084 20.1667 18.3334 19.3417 18.3334 18.3334V9.16675C18.3334 8.15841 17.5084 7.33342 16.5 7.33342ZM8.15835 5.50008C8.15835 3.93258 9.43252 2.65841 11 2.65841C12.5675 2.65841 13.8417 3.93258 13.8417 5.50008V7.33342H8.15835V5.50008ZM16.5 18.3334H5.50002V9.16675H16.5V18.3334Z" fill="black"/>
</svg>
