<svg width="22" height="22" viewBox="0 0 22 22" fill="none" xmlns="http://www.w3.org/2000/svg">
<g clip-path="url(#clip0_135_2096)">
<path d="M17.8109 11.8937C17.8475 11.6003 17.875 11.3024 17.875 10.9999C17.875 10.6974 17.8475 10.3995 17.8109 10.1062L19.7496 8.58908C19.9238 8.45158 19.9742 8.20408 19.8596 8.00242L18.0263 4.82617C17.9117 4.62909 17.6734 4.54659 17.4671 4.62909L15.1846 5.55033C14.7125 5.18825 14.1946 4.88117 13.6354 4.64742L13.2917 2.21825C13.2504 2.00284 13.0625 1.83325 12.8334 1.83325H9.16669C8.93752 1.83325 8.74961 2.00284 8.71294 2.21825L8.36919 4.64742C7.81002 4.88117 7.29211 5.18367 6.82002 5.55033L4.53752 4.62909C4.33127 4.55117 4.09294 4.62909 3.97836 4.82617L2.14502 8.00242C2.03044 8.1995 2.08086 8.447 2.25503 8.58908L4.18919 10.1062C4.15253 10.3995 4.12503 10.6974 4.12503 10.9999C4.12503 11.3024 4.15253 11.6003 4.18919 11.8937L2.25503 13.4108C2.08086 13.5483 2.03044 13.7958 2.14502 13.9974L3.97836 17.1737C4.09294 17.3708 4.33127 17.4533 4.53752 17.3708L6.82002 16.4495C7.29211 16.8116 7.81002 17.1187 8.36919 17.3524L8.71294 19.7816C8.74961 19.997 8.93752 20.1666 9.16669 20.1666H12.8334C13.0625 20.1666 13.2504 19.997 13.2871 19.7816L13.6309 17.3524C14.19 17.1187 14.7079 16.8162 15.18 16.4495L17.4625 17.3708C17.6688 17.4487 17.9071 17.3708 18.0217 17.1737L19.855 13.9974C19.9696 13.8003 19.9192 13.5528 19.745 13.4108L17.8109 11.8937V11.8937ZM11 14.2083C9.22627 14.2083 7.79169 12.7737 7.79169 10.9999C7.79169 9.22617 9.22627 7.79159 11 7.79159C12.7738 7.79159 14.2084 9.22617 14.2084 10.9999C14.2084 12.7737 12.7738 14.2083 11 14.2083Z" fill="black"/>
</g>
<defs>
<clipPath id="clip0_135_2096">
<rect width="22" height="22" fill="white"/>
</clipPath>
</defs>
</svg>
