<svg width="38" height="39" viewBox="0 0 38 39" fill="none" xmlns="http://www.w3.org/2000/svg">
<path fill-rule="evenodd" clip-rule="evenodd" d="M16.3479 7.33525C17.0224 4.55492 20.9776 4.55492 21.6521 7.33525C21.8574 8.18243 22.4549 8.88062 23.2602 9.21426C24.0655 9.54791 24.9817 9.47687 25.726 9.02308C28.1691 7.53475 30.9668 10.3309 29.4785 12.7756C29.0254 13.5195 28.9545 14.435 29.2878 15.2399C29.621 16.0447 30.3183 16.6421 31.1648 16.8479C33.9451 17.5224 33.9451 21.4776 31.1648 22.1521C30.3176 22.3574 29.6194 22.9549 29.2857 23.7602C28.9521 24.5655 29.0231 25.4817 29.4769 26.226C30.9653 28.6691 28.1691 31.4668 25.7244 29.9785C24.9805 29.5254 24.065 29.4545 23.2601 29.7878C22.4553 30.121 21.8579 30.8183 21.6521 31.6648C20.9776 34.4451 17.0224 34.4451 16.3479 31.6648C16.1426 30.8176 15.5451 30.1194 14.7398 29.7857C13.9345 29.4521 13.0183 29.5231 12.274 29.9769C9.83092 31.4653 7.03317 28.6691 8.5215 26.2244C8.97463 25.4805 9.0455 24.565 8.71225 23.7601C8.379 22.9553 7.68165 22.3579 6.83525 22.1521C4.05492 21.4776 4.05492 17.5224 6.83525 16.8479C7.68243 16.6426 8.38062 16.0451 8.71426 15.2398C9.04791 14.4345 8.97687 13.5183 8.52308 12.774C7.03475 10.3309 9.83092 7.53317 12.2756 9.0215C13.8589 9.98417 15.9109 9.13233 16.3479 7.33525Z" fill="white"/>
<path fill-rule="evenodd" clip-rule="evenodd" d="M16.3479 7.33525C17.0224 4.55492 20.9776 4.55492 21.6521 7.33525C21.8574 8.18243 22.4549 8.88062 23.2602 9.21426C24.0655 9.54791 24.9817 9.47687 25.726 9.02308C28.1691 7.53475 30.9668 10.3309 29.4785 12.7756C29.0254 13.5195 28.9545 14.435 29.2878 15.2399C29.621 16.0447 30.3183 16.6421 31.1648 16.8479C33.9451 17.5224 33.9451 21.4776 31.1648 22.1521C30.3176 22.3574 29.6194 22.9549 29.2857 23.7602C28.9521 24.5655 29.0231 25.4817 29.4769 26.226C30.9653 28.6691 28.1691 31.4668 25.7244 29.9785C24.9805 29.5254 24.065 29.4545 23.2601 29.7878C22.4553 30.121 21.8579 30.8183 21.6521 31.6648C20.9776 34.4451 17.0224 34.4451 16.3479 31.6648C16.1426 30.8176 15.5451 30.1194 14.7398 29.7857C13.9345 29.4521 13.0183 29.5231 12.274 29.9769C9.83092 31.4653 7.03317 28.6691 8.5215 26.2244C8.97463 25.4805 9.0455 24.565 8.71225 23.7601C8.379 22.9553 7.68165 22.3579 6.83525 22.1521C4.05492 21.4776 4.05492 17.5224 6.83525 16.8479C7.68243 16.6426 8.38062 16.0451 8.71426 15.2398C9.04791 14.4345 8.97687 13.5183 8.52308 12.774C7.03475 10.3309 9.83092 7.53317 12.2756 9.0215C13.8589 9.98417 15.9109 9.13233 16.3479 7.33525Z" stroke="#EA5455" stroke-width="1.5" stroke-linecap="round" stroke-linejoin="round"/>
<path fill-rule="evenodd" clip-rule="evenodd" d="M16.3479 7.33525C17.0224 4.55492 20.9776 4.55492 21.6521 7.33525C21.8574 8.18243 22.4549 8.88062 23.2602 9.21426C24.0655 9.54791 24.9817 9.47687 25.726 9.02308C28.1691 7.53475 30.9668 10.3309 29.4785 12.7756C29.0254 13.5195 28.9545 14.435 29.2878 15.2399C29.621 16.0447 30.3183 16.6421 31.1648 16.8479C33.9451 17.5224 33.9451 21.4776 31.1648 22.1521C30.3176 22.3574 29.6194 22.9549 29.2857 23.7602C28.9521 24.5655 29.0231 25.4817 29.4769 26.226C30.9653 28.6691 28.1691 31.4668 25.7244 29.9785C24.9805 29.5254 24.065 29.4545 23.2601 29.7878C22.4553 30.121 21.8579 30.8183 21.6521 31.6648C20.9776 34.4451 17.0224 34.4451 16.3479 31.6648C16.1426 30.8176 15.5451 30.1194 14.7398 29.7857C13.9345 29.4521 13.0183 29.5231 12.274 29.9769C9.83092 31.4653 7.03317 28.6691 8.5215 26.2244C8.97463 25.4805 9.0455 24.565 8.71225 23.7601C8.379 22.9553 7.68165 22.3579 6.83525 22.1521C4.05492 21.4776 4.05492 17.5224 6.83525 16.8479C7.68243 16.6426 8.38062 16.0451 8.71426 15.2398C9.04791 14.4345 8.97687 13.5183 8.52308 12.774C7.03475 10.3309 9.83092 7.53317 12.2756 9.0215C13.8589 9.98417 15.9109 9.13233 16.3479 7.33525Z" stroke="white" stroke-opacity="0.2" stroke-width="1.5" stroke-linecap="round" stroke-linejoin="round"/>
<path fill-rule="evenodd" clip-rule="evenodd" d="M15.8333 14.75V24.25L23.7499 19.5L15.8333 14.75Z" stroke="#EA5455" stroke-width="1.5" stroke-linecap="round" stroke-linejoin="round"/>
<path fill-rule="evenodd" clip-rule="evenodd" d="M15.8333 14.75V24.25L23.7499 19.5L15.8333 14.75Z" stroke="white" stroke-opacity="0.2" stroke-width="1.5" stroke-linecap="round" stroke-linejoin="round"/>
</svg>
