<svg width="10" height="9" viewBox="0 0 10 9" fill="none" xmlns="http://www.w3.org/2000/svg">
<path d="M1.60742 3.41669C1.05514 3.41669 0.607422 3.8644 0.607422 4.41669C0.607422 4.96897 1.05514 5.41669 1.60742 5.41669V3.41669ZM8.10742 5.41669C8.65971 5.41669 9.10742 4.96897 9.10742 4.41669C9.10742 3.8644 8.65971 3.41669 8.10742 3.41669V5.41669ZM5.85742 1.16669C5.85742 0.614402 5.40971 0.166687 4.85742 0.166687C4.30514 0.166687 3.85742 0.614402 3.85742 1.16669H5.85742ZM3.85742 7.66669C3.85742 8.21897 4.30514 8.66669 4.85742 8.66669C5.40971 8.66669 5.85742 8.21897 5.85742 7.66669H3.85742ZM1.60742 5.41669H8.10742V3.41669H1.60742V5.41669ZM3.85742 1.16669V7.66669H5.85742V1.16669H3.85742Z" fill="#2F3349"/>
</svg>
