<svg width="4" height="15" viewBox="0 0 4 15" fill="none" xmlns="http://www.w3.org/2000/svg">
<path fill-rule="evenodd" clip-rule="evenodd" d="M2.33335 4.16668C3.25002 4.16668 4.00002 3.41668 4.00002 2.50001C4.00002 1.58334 3.25002 0.833344 2.33335 0.833344C1.41669 0.833344 0.666687 1.58334 0.666687 2.50001C0.666687 3.41668 1.41669 4.16668 2.33335 4.16668ZM2.33335 5.83334C1.41669 5.83334 0.666687 6.58334 0.666687 7.50001C0.666687 8.41668 1.41669 9.16668 2.33335 9.16668C3.25002 9.16668 4.00002 8.41668 4.00002 7.50001C4.00002 6.58334 3.25002 5.83334 2.33335 5.83334ZM2.33335 10.8333C1.41669 10.8333 0.666687 11.5833 0.666687 12.5C0.666687 13.4167 1.41669 14.1667 2.33335 14.1667C3.25002 14.1667 4.00002 13.4167 4.00002 12.5C4.00002 11.5833 3.25002 10.8333 2.33335 10.8333Z" fill="black" fill-opacity="0.87"/>
</svg>
