<svg width="5" height="5" viewBox="0 0 5 5" fill="none" xmlns="http://www.w3.org/2000/svg">
<path d="M1.02417 1.91665C0.471885 1.91665 0.0241699 2.36436 0.0241699 2.91665C0.0241699 3.46893 0.471885 3.91665 1.02417 3.91665V1.91665ZM3.19084 3.91665C3.74312 3.91665 4.19084 3.46893 4.19084 2.91665C4.19084 2.36436 3.74312 1.91665 3.19084 1.91665V3.91665ZM3.1075 1.83331C3.1075 1.28103 2.65979 0.833313 2.1075 0.833313C1.55522 0.833313 1.1075 1.28103 1.1075 1.83331H3.1075ZM1.1075 3.99998C1.1075 4.55226 1.55522 4.99998 2.1075 4.99998C2.65979 4.99998 3.1075 4.55226 3.1075 3.99998H1.1075ZM1.02417 3.91665H3.19084V1.91665H1.02417V3.91665ZM1.1075 1.83331V3.99998H3.1075V1.83331H1.1075Z" fill="#2F3349"/>
</svg>
