<svg width="24" height="28" viewBox="0 0 24 28" fill="none" xmlns="http://www.w3.org/2000/svg">
<path d="M20.75 3H15.5187C15.0062 1.55 13.6313 0.5 12 0.5C10.3687 0.5 8.99375 1.55 8.48125 3H3.25C1.86875 3 0.75 4.11875 0.75 5.5V25.5C0.75 26.8813 1.86875 28 3.25 28H20.75C22.1313 28 23.25 26.8813 23.25 25.5V5.5C23.25 4.11875 22.1313 3 20.75 3ZM12 3C12.6875 3 13.25 3.55625 13.25 4.25C13.25 4.94375 12.6875 5.5 12 5.5C11.3125 5.5 10.75 4.94375 10.75 4.25C10.75 3.55625 11.3125 3 12 3ZM20.75 25.5H3.25V5.5H5.75V9.25H18.25V5.5H20.75V25.5Z" fill="#EA5455"/>
</svg>
