<svg width="34" height="24" viewBox="0 0 34 24" fill="none" xmlns="http://www.w3.org/2000/svg">
<path fill-rule="evenodd" clip-rule="evenodd" d="M0.00183571 0.3125V7.59485C0.00183571 7.59485 -0.141502 9.88783 2.10473 11.8288L14.5469 23.6837L21.0172 23.6005L19.9794 10.8126L17.5261 7.93369L9.81536 0.3125H0.00183571Z" fill="url(#paint0_angular_64_702)"/>
<path opacity="0.06" fill-rule="evenodd" clip-rule="evenodd" d="M8.17969 17.7762L13.3027 3.75179L17.589 8.02198L8.17969 17.7762Z" fill="#161616"/>
<path opacity="0.06" fill-rule="evenodd" clip-rule="evenodd" d="M8.58203 17.2249L14.8129 5.24237L17.6211 8.05253L8.58203 17.2249Z" fill="#161616"/>
<path fill-rule="evenodd" clip-rule="evenodd" d="M8.25879 17.6914L25.1349 0.3125H34.0001V7.62657C34.0001 7.62657 33.8154 10.0645 32.5753 11.3686L21.0188 23.6875H14.5497L8.25879 17.6914Z" fill="url(#paint1_angular_64_702)"/>
<defs>
<radialGradient id="paint0_angular_64_702" cx="0" cy="0" r="1" gradientUnits="userSpaceOnUse" gradientTransform="translate(10.5086 11.9981) rotate(90) scale(11.6856 10.5086)">
<stop stop-color="#B0192C" stop-opacity="0.9"/>
<stop offset="0.86" stop-color="#D22E43" stop-opacity="0.72"/>
</radialGradient>
<radialGradient id="paint1_angular_64_702" cx="0" cy="0" r="1" gradientUnits="userSpaceOnUse" gradientTransform="translate(21.1294 12) rotate(90) scale(11.6875 12.8706)">
<stop stop-color="#B0192C" stop-opacity="0.9"/>
<stop offset="0.86" stop-color="#D22E43" stop-opacity="0.72"/>
</radialGradient>
</defs>
</svg>
